<?xml version="1.0" standalone="no"?>
<svg viewBox="0 0 200 200" xmlns="http://www.w3.org/2000/svg">
  <linearGradient id="gradiente" x1="30%" y1="30%" x2="100%" y2="100%">
    <stop offset="0%" style="stop-color:#438997;" />
    <stop offset="100%" style="stop-color:#e8d444;" />
  </linearGradient>

  <path fill="url(#gradiente)" d="M47.5,-60.3C59.4,-56.6,65.6,-40,71.2,-23.1C76.8,-6.2,81.8,11,74.1,20.9C66.5,30.7,46.3,33.2,31.8,39.8C17.3,46.3,8.7,56.9,-1.7,59.2C-12,61.5,-24.1,55.6,-34.2,47.6C-44.4,39.7,-52.6,29.7,-60.1,17.1C-67.6,4.4,-74.3,-10.9,-71.5,-24.3C-68.6,-37.7,-56.3,-49.2,-42.8,-52.3C-29.3,-55.5,-14.7,-50.5,1.5,-52.6C17.7,-54.7,35.5,-64,47.5,-60.3Z" transform="translate(100 100)" />
</svg>
