<?xml version="1.0" encoding="UTF-8"?>
<svg id="Capa_1" data-name="Capa 1" xmlns="http://www.w3.org/2000/svg" viewBox="0 0 426.99 215.29">
  <defs>
    <style>
      .full-logo {
        fill: #5bb784;
      }
    </style>
  </defs>
  <path class="full-logo" d="m86.91,120.44c.83.76,2.1.28,2.35-.88.12-.57.25-1.1.43-1.61.99-2.84,1.79-5.8,3.2-8.42,4.14-7.7,11.5-11.02,19.87-9.05,6.72,1.59,12.01,5.42,15.74,11.36,1.72,2.74,2.72,5.78,2.52,9.07-.27,4.44-2.53,7.72-6.16,10.07-3.7,2.4-7.86,3.4-12.14,4.01-4.6.66-9.2.81-13.81.06h-.02c-1.14-.19-2,1.12-1.51,2.27.62,1.45,1.73,2.46,3.28,3.07,1.35.54,2.87.66,4.33.85.44.06.89.06,1.36.05.81-.02,1.48.71,1.48,1.62v4.95c0,.8-.53,1.5-1.24,1.6-6.44.92-15.72-2.26-17.85-12.16-.19-.9-.53-1.85-.42-2.72.31-2.42-1.05-3.49-2.82-4.67-7.45-4.95-11.9-12.12-13.46-20.9-2.58-14.43,1.06-27.18,11.23-37.7,7.17-7.42,16.17-10.77,26.28-11.24,5.65-.26,11.21.55,16.64,2.08,8.71,2.46,17.02,5.97,24.56,11.07,3.48,2.36,6.87,5.01,9.8,8.03,9.96,10.24,12.67,22.42,8.51,36.17-1.74,5.75-4.57,10.96-8.03,15.81-6.78,9.51-15.29,17.13-24.93,23.49-11.62,7.66-24.13,13.11-37.88,15.34-7.23,1.17-14.47,1.26-21.64-.47-13.6-3.28-22.7-11.76-27.52-25.04-3.35-9.21-4.15-18.81-3.77-28.52.48-12.3,2.67-24.34,5.74-36.22,0,0,0,0,0-.01.25-.95,1.14-1.5,2-1.27,1.31.34,2.61.68,3.93,1.03s2.06,1.77,1.74,3.18c-.72,3.12-1.42,6.12-2.05,9.14-2.13,10.3-3.54,20.68-3.17,31.23.21,5.89,1.01,11.7,2.89,17.31,4.57,13.63,14.74,21.34,28.89,22.02,8.28.4,16.28-1,24.07-3.71,14.52-5.04,27.31-12.98,38.14-24.09,5.33-5.47,9.81-11.56,12.7-18.75,4.8-11.98,2.63-22.83-6.5-31.78-1.89-1.86-3.96-3.59-6.15-5.06-9.56-6.4-19.88-10.98-31.32-12.36-20.45-2.47-33.59,10.26-36.32,26.83-1.15,6.97-.36,13.74,3.21,19.98,1.02,1.79,2.21,3.43,3.84,4.92Zm9.95,4.12c-.07.77.35,1.49,1.02,1.72.28.1.55.18.82.24,4,.83,8.04.88,12.05.28,2.59-.39,5.22-.92,7.65-1.87,4.81-1.88,5.65-5.23,2.61-9.51-2.35-3.31-5.5-5.52-9.36-6.62-4.98-1.42-8.95.2-11.58,4.75-1.96,3.38-2.83,7.08-3.21,11.02Z"/>
  <path class="full-logo" d="m310.94,100.41c-2.19,1.89-5.66,2.55-6.19,6.02-.33,2.13-.42,4.31-.41,6.47,0,.82.58,1.63.88,2.43,2.75-.87,4.7-3.51,4.82-6.26.05-1.09-.04-2.19.07-3.27.13-1.32.93-1.89,2.42-1.9,1.16,0,1.78.5,1.9,1.84.12,1.33-.02,2.69.09,4.03.1,1.33.19,2.71.6,3.95.64,1.95,2.42,2.34,3.9.93.94-.89,1.71-1.96,2.66-3.08.24,3.88-2.86,7.63-6.29,7.91-1.52.12-2.77-.37-3.68-1.62-.54-.73-.98-1.53-1.55-2.44-1.47,1.49-2.78,3.15-5,3.44-2.23.29-3.75-.94-5.17-2.52-.56.66-.97,1.17-1.41,1.66-3.47,3.86-8.84,3.85-12.07-.25-1.2-1.53-2.16-3.44-2.62-5.33-1.79-7.36-1.29-14.68,1.34-21.77.62-1.67,1.73-3.25,2.94-4.58,1.68-1.84,3.92-2.11,6.15-1.09,2.13.97,2.89,2.86,2.81,5.16-.23,6.22-2.38,11.78-5.63,16.96-.27.42-.59.81-.83,1.25-.59,1.05-2.08,1.83-1.5,3.24.65,1.59,1.45,3.26,2.62,4.45,1.88,1.92,5.59,1.07,6.82-1.37.27-.52.19-1.29.11-1.92-.28-2.47-.1-4.86.97-7.14,1.85-3.96,5.12-5.77,9.25-6.16.61-.06,1.25.22,1.87.35.03.2.07.4.1.6Zm-22.07,5.26c2.91-4.65,4.83-9.57,5.27-15.02.05-.57-.04-1.19-.21-1.73-.45-1.38-1.66-1.8-2.68-.8-.73.72-1.4,1.73-1.64,2.72-.58,2.43-1.07,4.91-1.26,7.4-.19,2.45-.39,4.97.52,7.42Z"/>
  <path class="full-logo" d="m146.51,48.88c-1.23-.72-1.82-1.33-2.74-1.87-1.15-.67-1.06-3.82-.34-5.02h0c4.84-8.01,9.69-16.01,14.53-24.01,3.11-5.15,6.24-10.29,9.28-15.48C168.18.9,169.37-.01,171.2,0c2.93.02,4.82,2.88,3.7,5.63-.25.62-.61,1.19-.96,1.76-4.6,7.56-9.23,15.11-13.81,22.69-3.28,5.43-6.51,10.9-9.76,16.35-.02.03-.04.06-.06.09-.63,1.05-2.79,2.93-3.8,2.35Z"/>
  <path class="full-logo" d="m147.67,168.08c1.17-.62,1.42-.78,2.51-1.48s2.51-.29,3.16.89h0c5.99,10.92,11.98,21.84,17.94,32.78,1.68,3.08,3.33,6.19,4.92,9.31.98,1.91.26,4.06-1.6,5.14-1.91,1.11-4.65.52-5.65-1.32-7.49-13.72-14.95-27.46-22.42-41.19h0c-.8-1.48-.28-3.4,1.13-4.14Z"/>
  <path class="full-logo" d="m184.72,107.22c-1.28.12-2.42-.9-2.58-2.32-.12-1.08-.23-2.08-.33-3.09h0c-.13-1.41.8-2.66,2.06-2.81,1.81-.22,3.61-.44,5.43-.56,6-.4,12.01-.68,18.01-1.06,4.68-.29,9.37-.62,14.05-.98,1.34-.1,2.62-.15,3.73.82,1.38,1.19,2.06,2.67,1.56,4.46-.49,1.75-1.72,2.85-3.57,3-4.27.35-8.54.7-12.81.96-6.91.42-13.82.75-20.72,1.16-1.58.09-3.16.24-4.83.4Z"/>
  <path class="full-logo" d="m363.69,59.69c-2.38,1.79-5.87,2.58-6.25,6.24-.23,2.23-.28,4.49-.25,6.74,0,.64.59,1.28,1,2.09,2.8-1.43,4.26-3.47,4.51-6.37.07-.83-.05-1.68.01-2.52.16-2.19.55-2.63,2.69-2.77,1.25-.08,1.82.77,1.91,2.68.07,1.42-.02,2.86.06,4.28.05.91.15,1.86.46,2.71.76,2.1,2.45,2.52,4.04.98.88-.85,1.59-1.88,2.65-3.16.04.8.17,1.25.07,1.64-.55,2.29-1.74,4.17-3.72,5.43-2.88,1.84-5.37,1.23-7.13-1.7-.25-.42-.48-.86-.8-1.44-1.52,1.71-2.93,3.32-5.26,3.54-2.48.23-3.87-1.43-5.36-3.18-.46.61-.79,1.07-1.15,1.52-3.02,3.67-8.15,2.98-10.07-1.39-.56-1.28-.94-2.64-1.39-3.95-.97.28-1.78.52-3,.88.37-.94.46-1.45.73-1.81,1.71-2.23,2.17-4.85,2.34-7.56.19-2.97.98-3.76,3.94-3.91,1.5-.08,2.16.52,2.08,2.06-.08,1.51-.39,3.01-.39,4.51,0,2.34.03,4.7.3,7.02.26,2.14,1.51,3.14,3.05,2.87,1.57-.28,2.83-2.12,2.66-3.89-.63-6.4,3.1-11.43,9.29-12.44.9-.15,1.85.05,2.78.09.07.28.14.56.21.83Z"/>
  <path class="full-logo" d="m337.66,76.06c-.93,2.32-2.57,2.72-4.38,2.49-3.48-.44-4.2-3.26-4.79-6.57-.74.89-1.22,1.51-1.74,2.09-1.7,1.92-3.62,3.4-6.3,3.54-1.63.09-2.86-.52-3.82-1.84-2.31-3.17-2.65-9.04-.68-12.46,1.6-2.78,4.36-3.72,7.73-2.55,1.07.37,2.08.92,3.28,1.45.15-.51.34-.88.36-1.26.22-4.02.47-8.04.58-12.06.08-3.04,1.16-4.62,4.45-5.74.11,1.02.31,1.98.3,2.94-.08,5.87-.26,11.74-.28,17.61,0,2.17.18,4.36.51,6.51.42,2.74,1.28,5.29,4.79,5.85Zm-11.5-11.07c-3.13-1.04-5.06-.62-5.92,1.27-.89,1.95-1.03,4.05-.57,6.14.32,1.45,1.25,1.85,2.32.92,2.45-2.14,3.84-4.89,4.18-8.33Z"/>
  <path class="full-logo" d="m277.71,49.61c.04.8.13,1.59.13,2.39,0,3.77.1,7.55-.08,11.32-.14,3-.6,5.99-.99,8.98-.11.82-.45,1.61-.76,2.39-2.06,5.1-6.84,6.51-11.32,3.36-2.43-1.71-3.76-4.19-4.6-6.97-1.4-4.64-1.62-9.41-1.3-14.21.16-2.34.5-4.67.86-6.99.15-.95.56-1.85.87-2.83,1.53.49,1.7,1.66,1.89,2.67.58,3.04.99,6.12,1.55,9.17.62,3.38,1.22,6.77,2.07,10.09.41,1.58,1.24,3.11,2.13,4.49.82,1.26,2.05,1.28,2.84.02.87-1.38,1.61-2.97,1.91-4.56.81-4.28,1.33-8.62,2.03-12.92.24-1.49.59-2.96,1.01-4.4.22-.76.69-1.43,1.05-2.15.24.05.48.1.72.16Z"/>
  <path class="full-logo" d="m376.29,117.5c-.63-2.01-1.96-2.92-3.51-3.64-1.68-.78-1.79-1.45-.5-2.74.77-.76,1.75-1.31,2.43-2.14.78-.94,1.48-2.01,1.93-3.14.44-1.13-.16-2.13-1.12-2.81-.93-.67-1.85-.56-2.73.14-.2.15-.4.3-.59.46-.67.56-1.54,1.11-2.16.29-.4-.54-.45-1.59-.26-2.31.59-2.24,2.68-3.78,5.02-3.75,2.54.03,4.71.92,5.95,3.35,1.22,2.38.76,5.96-1.08,8.03-.81.91-1.79,1.66-2.79,2.58.94.8,1.8,1.54,2.69,2.3,2.03-1.31,3.39-3.79,6.19-3.6.47,1.06-.21,1.53-.72,2.02-.9.86-1.85,1.67-2.77,2.52-.93.86-1.21,1.72-.69,3.1,1.36,3.64,1.26,7.43.23,11.14-.87,3.14-2.8,5.51-5.82,6.78-3.16,1.32-5.74-.26-5.93-3.72-.22-3.97.7-7.67,3.09-10.89.99-1.33,2.06-2.61,3.15-3.97Zm.94,4.31c-4.14,3.51-5.83,9.2-3.61,12.11,3.25-1.49,5.47-8.93,3.61-12.11Z"/>
  <path class="full-logo" d="m26.77,111.06c.95.03,1.72.91,1.73,1.96,0,1.31,0,2.6-.01,3.89,0,.27-.02.53-.05.8-.07.76-.54,1.43-1.2,1.62-.07.02-.14.03-.21.03-7.43-.15-14.77.89-22.12,1.8-2.82.35-5.08-1.75-4.9-4.54.11-1.76,1.24-3.39,2.93-3.58,7.93-.87,14.38-2.02,23.83-2h0Z"/>
  <path class="full-logo" d="m285.14,59.82c1.02,2.49.4,4.97.78,7.72.48-.57.81-.93,1.1-1.32,1.06-1.39,1.94-2.96,3.18-4.14,2.66-2.53,5.81-1.71,6.97,1.81.56,1.72.64,3.61.89,5.43.23,1.66.27,3.35.64,4.97.68,3.01,2.33,3.8,5.11,2.67.58-.24,1.15-.48,2.25-.94-1.21,2.72-2.75,4.18-5.1,4.52-2.49.36-4.7-.47-5.86-2.8-.88-1.76-1.35-3.75-1.81-5.69-.32-1.37-.25-2.84-.48-4.24-.15-.93-.53-1.83-.95-3.2-1.04.83-1.81,1.28-2.35,1.92-1.54,1.82-2.45,3.96-2.8,6.33-.11.75-.17,1.5-.27,2.25-.33,2.48-2.35,3.56-4.56,2.33-.46-.26-.9-1.04-.91-1.58-.04-4.19-.09-8.38.1-12.56.1-2.12,1.18-2.88,4.05-3.47Z"/>
  <path class="full-logo" d="m71.13,33.34c.8,1.21.51,2.87-.62,3.69l-.47.34c-.55.4-1.11.8-1.67,1.2-1.62,1.15-3.77.58-4.75-1.25h0c-3.07-5.74-7.01-11.52-9.91-17.36-1.07-2.16-.18-4.32,1.82-5.32,2.15-1.06,4.47-.27,5.66,1.95,2.75,5.16,7.22,12.08,9.7,16.38.45.8.24.37.24.37Z"/>
  <path class="full-logo" d="m357.12,110.74c.1.91.14,1.57.26,2.21.75,4.04,3.81,4.13,6.19,2.04,1.28-1.12,2.24-2.63,3.52-4.17.19.58.45,1,.43,1.41-.25,4.14-4.62,9.71-10.74,7.54-2.16-.77-3.7-2.26-4.5-4.38-1.91-5.03-1.5-9.92,1.56-14.35,2.07-2.99,5.26-3.92,8.72-3.71,1.97.12,3.32,1.97,3.43,4.26.17,3.67-2.83,7.55-6.7,8.64-.62.18-1.26.3-2.18.51Zm.18-4.05c2.39-.07,4.87-1.86,5.47-4.08.15-.56.08-1.36-.23-1.79-.2-.27-1.09-.19-1.58-.03-1.94.66-3.63,3.47-3.65,5.9Z"/>
  <path class="full-logo" d="m62.11,188.07c.11.12.23.25.34.37,1.36,1.48,1.5,3.87.31,5.53-3.52,4.89-5.94,10.39-8.92,15.56-.99,1.72-3.63,2.29-5.43,1.24-1.73-1-2.68-3.53-1.78-5.16,2.96-5.33,5.93-10.64,9.03-15.88.31-.52.66-1,1.04-1.48,1.41-1.76,3.88-1.83,5.4-.18Z"/>
  <path class="full-logo" d="m261.48,100.35c-.92.61-1.81,1.27-2.76,1.82-3.73,2.18-5.44,9.07-3.15,12.82.08.13.27.18.41.26,2.47-.8,4.42-3.43,4.53-6.17.04-.84-.04-1.68,0-2.51.1-2.02.69-2.64,2.47-2.66,1.37-.02,1.89.63,1.97,2.56.04,1.17-.05,2.35.03,3.52.08,1.16.17,2.36.5,3.47.67,2.22,2.52,2.68,4.16,1.06.86-.85,1.58-1.86,2.46-2.9.46,4.23-3.64,8.5-7.38,7.77-.95-.19-1.86-.97-2.62-1.68-.58-.54-.89-1.39-1.44-2.3-.53.56-.99,1.09-1.49,1.58-2.97,2.96-6.84,2.42-8.9-1.24-3.83-6.82,1.5-16.27,9.2-16.3.61,0,1.22.25,1.83.38.05.17.11.34.16.52Z"/>
  <path class="full-logo" d="m342.24,116.31c.21-.78.41-1.57.63-2.35.77-2.73,1.41-5.51,2.35-8.18.69-1.93,2.1-3.34,4.55-3.94.06.86.29,1.59.14,2.24-.9,4.09-1.86,8.18-3.75,11.95-.37.74-.8,1.47-1.29,2.14-1.25,1.71-2.88,2.28-4.78,1.39-1.08-.51-2.14-1.31-2.9-2.25-3.27-4.08-4.33-9-4.63-14.08-.16-2.81,1.49-4,4.12-3.39,1.71.4,2.49,1.43,2.31,3.25-.35,3.57.09,7.04,1.17,10.42.32.99.89,1.89,1.34,2.84.24-.01.48-.03.72-.04Z"/>
  <path class="full-logo" d="m390.2,164.93c-.38.19-.67.33-.95.48-3.35,1.79-6.37.16-6.73-3.68-.12-1.25.03-2.52-.06-3.77-.31-4.14,3.03-7.45,7.18-4.57,1.1-.35,1.98-.62,3.1-.98,0,5.03.08,9.64-.03,14.23-.05,2.08-1.16,3.66-3.14,4.41-2.3.87-4.79.25-6.77-1.81.39-.39.79-.78,1.23-1.2,1.83,1.05,3.49,2.01,5.23.62,1.16-.93,1.33-2.21.94-3.73Zm.18-5.71h0c0-.59.03-1.18,0-1.76-.12-1.8-.98-2.75-2.5-2.84-1.52-.09-2.74.8-2.92,2.44-.16,1.49-.16,3.02.01,4.51.19,1.64,1.36,2.43,2.99,2.3,1.47-.11,2.26-.94,2.42-2.64.06-.66,0-1.34,0-2.01Z"/>
  <path class="full-logo" d="m298.08,147.19c2.66,0,5.05-.1,7.42.02,3.22.17,5.13,2.5,5.05,5.9-.08,3.23-2.05,5.3-5.25,5.45-1.47.07-2.94.01-4.73.01-.1,2.44-.2,4.72-.3,7.15h-2.19v-18.53Zm2.5,8.88c.71.07,1.27.16,1.83.17.98.02,1.97.06,2.95-.03,1.69-.17,2.72-1.43,2.76-3.24.04-1.79-.98-3.23-2.61-3.38-1.6-.14-3.21-.03-4.93-.03v6.52Z"/>
  <path class="full-logo" d="m224.24,161.01c-1.19,3.57-3.27,5.2-6.35,5.13-2.87-.07-5.35-1.69-5.73-4.57-.42-3.19-.46-6.53-.06-9.72.39-3.18,2.84-4.81,6.02-4.8,3.19.01,5.25,1.75,6.02,5.16-1.11.46-1.98.39-2.69-.8-1.01-1.71-2.6-2.32-4.47-1.81-1.84.51-2.63,2.02-2.7,3.81-.1,2.25-.06,4.52.08,6.78.11,1.75,1.11,2.99,2.81,3.43,1.69.44,3.2-.12,4.09-1.61.76-1.26,1.62-1.52,2.99-1Z"/>
  <path class="full-logo" d="m238.03,164.1c-1.62,1.5-3.05,2.03-4.68,2.03-3.27,0-5.28-1.85-5.5-5.16-.09-1.33-.08-2.69.09-4.01.33-2.65,1.99-4.19,4.57-4.46,2.66-.28,4.49.82,5.32,3.43.39,1.24.42,2.59.67,4.24h-8.07c-.16,3.56,2.02,4.45,6.34,2.54.3.33.71.79,1.26,1.39Zm-2.29-5.93c.05-2.42-.92-3.63-2.72-3.55-1.85.09-2.76,1.34-2.55,3.55h5.27Z"/>
  <path class="full-logo" d="m426.98,159.23c0,.5.02,1.01,0,1.51-.14,3.33-1.91,5.24-4.98,5.39-3.26.16-5.41-1.6-5.69-4.92-.14-1.65-.09-3.37.25-4.98.57-2.72,2.63-3.99,5.59-3.76,2.76.21,4.46,1.8,4.77,4.51.08.74.01,1.51.01,2.26.02,0,.03,0,.05,0Zm-2.34.26c-.03-.78,0-1.45-.1-2.1-.25-1.62-1.31-2.6-2.79-2.66-1.45-.06-2.72.83-2.93,2.46-.19,1.46-.17,3,.08,4.44.26,1.52,1.42,2.23,2.87,2.16,1.41-.06,2.42-.93,2.72-2.42.13-.65.11-1.32.14-1.88Z"/>
  <path class="full-logo" d="m378.9,159.29c0,.5.02,1.01,0,1.51-.16,3.39-2.08,5.32-5.3,5.34-3.23.02-5.21-1.87-5.42-5.23-.07-1.17-.08-2.35.01-3.52.26-3.2,2.25-4.98,5.41-4.95,3.17.03,5.06,1.85,5.28,5.09.04.58,0,1.17,0,1.76h0Zm-2.32.08c-.06-.79-.03-1.55-.19-2.28-.32-1.46-1.41-2.34-2.79-2.37-1.38-.03-2.64.79-2.84,2.26-.21,1.54-.2,3.16.05,4.69.23,1.43,1.3,2.08,2.67,2.11,1.43.03,2.52-.76,2.88-2.22.18-.72.15-1.48.22-2.19Z"/>
  <path class="full-logo" d="m286.73,159.31c0,.5.02,1.01,0,1.51-.19,3.38-2.12,5.3-5.33,5.32-3.23.02-5.2-1.87-5.38-5.25-.06-1.17-.07-2.35.01-3.52.23-3.1,2.11-4.86,5.17-4.93,3.17-.08,5.2,1.7,5.5,4.86.06.66,0,1.34,0,2.01h.02Zm-2.28.11c-.11-.9-.11-1.75-.32-2.54-.36-1.37-1.38-2.11-2.7-2.15-1.28-.04-2.6.7-2.77,2-.22,1.7-.2,3.47.05,5.17.18,1.26,1.29,1.86,2.57,1.89,1.37.03,2.36-.61,2.79-1.98.24-.78.27-1.63.38-2.39Z"/>
  <path class="full-logo" d="m357.06,159.34c0,.5.02,1.01,0,1.51-.19,3.36-2.14,5.28-5.37,5.28-3.23,0-5.18-1.9-5.35-5.28-.06-1.17-.07-2.35.02-3.52.24-3.09,2.14-4.84,5.2-4.89,3.17-.06,5.18,1.72,5.47,4.89.06.66,0,1.34,0,2.01h.02Zm-8.39-.16c.04.7,0,1.38.12,2.03.3,1.64,1.34,2.55,2.85,2.57,1.53.02,2.68-.82,2.9-2.48.18-1.38.17-2.84-.03-4.22-.22-1.51-1.37-2.34-2.76-2.36-1.47-.03-2.62.92-2.93,2.5-.13.65-.1,1.33-.14,1.96Z"/>
  <path class="full-logo" d="m323.13,154.11c-.38.54-.69.99-1.08,1.54-.81-.27-1.55-.65-2.33-.75-1.03-.13-2.11-.18-3.14-.02-.78.12-1.35.86-1.08,1.68.17.5.79,1.04,1.31,1.18,1.11.29,2.28.3,3.42.48,2.06.32,3.03,1.31,3.19,3.19.19,2.18-.67,3.59-2.6,4.3-2.66.98-5.65.44-8.2-1.54.1-.26.19-.56.34-.83.16-.29.37-.55.53-.77.43.1.69.09.88.21,1.46.91,3.03,1.28,4.73,1.04,1.06-.15,1.95-.57,2-1.82.05-1.21-.9-1.51-1.81-1.67-.97-.17-1.97-.16-2.94-.3-2.27-.33-3.21-1.33-3.26-3.34-.06-2.28.98-3.66,3.18-4.06,2.4-.44,4.71-.26,6.88,1.47Z"/>
  <path class="full-logo" d="m252.52,165.73h-2.24c0-2.15,0-4.15,0-6.15,0-.84.03-1.69-.12-2.51-.28-1.56-1.53-2.46-3.04-2.33-1.47.13-2.39,1-2.46,2.63-.1,2.26-.04,4.53-.05,6.8,0,.41-.05.82-.09,1.42-.64.11-1.24.21-1.7.29-.74-.69-.86-9.81-.34-13.06q1.67-.13,2.62.98c.33-.23.65-.5,1.01-.7,2.87-1.58,6.01-.23,6.35,3.04.32,3.14.07,6.33.07,9.59Z"/>
  <path class="full-logo" d="m413.88,154.48c-.85.56-1.38.92-1.98,1.31-.66-.29-1.31-.65-2-.86-2.33-.71-4.08.55-4.27,3.06-.06.83-.06,1.68,0,2.51.2,2.7,2.21,3.95,4.7,2.96.52-.21,1.01-.51,1.82-.93.43.44.87.89,1.28,1.32-.32.51-.4.76-.58.91-1.57,1.35-3.42,1.59-5.35,1.27-2.44-.41-3.95-2.06-4.21-4.57-.1-1-.03-2.01-.07-3.01-.22-5.64,4.39-6.75,8.1-5.57.74.23,1.36.84,2.56,1.61Z"/>
  <path class="full-logo" d="m343.31,154.32c-.79,1.42-1.53,1.51-2.76.91-.86-.42-2.07-.35-3.05-.14-.6.13-1.45.89-1.51,1.44-.19,1.8-.31,3.67,0,5.43.27,1.52,2.2,2.21,3.87,1.68.69-.22,1.32-.61,2.26-1.06.42.41.87.85,1.3,1.28-.32.51-.41.76-.58.9-1.57,1.33-3.41,1.59-5.34,1.26-2.36-.4-3.84-1.88-4.13-4.33-.18-1.56-.19-3.18-.02-4.74.28-2.61,1.74-4.04,4.29-4.4,2.1-.29,4.08-.06,5.68,1.76Z"/>
  <path class="full-logo" d="m257.45,148.83h2.01c.08,1.17.15,2.24.24,3.43.57.21,1.15.44,1.68.64.62,1.6-.41,1.93-1.77,2.07,0,2.55-.05,4.95.04,7.35.02.46.49,1.2.87,1.28,1.39.32,1.04,1.22.91,2.11-2.82.63-4.11-.3-4.21-3.09-.06-1.59.02-3.18-.03-4.76-.04-1.26.45-2.7-1.15-3.49-.2-.1-.21-1.26-.06-1.32,1.94-.81.91-2.61,1.46-4.22Z"/>
  <path class="full-logo" d="m365.43,163.97c-.05.7-.08,1.26-.11,1.69-1.1.86-3.35.11-3.93-1.21-.23-.52-.33-1.14-.33-1.71-.02-4.86,0-9.71.01-14.57,0-.24.13-.47.24-.83h2.12c0,1.09,0,2.07,0,3.05,0,3.6.05,7.2-.02,10.8-.03,1.51.21,2.68,2.02,2.78Z"/>
  <path class="full-logo" d="m272.86,155.18c-4.2-.91-4.99-.25-5.02,3.94-.01,2.01-.04,4.02-.07,6.02,0,.15-.14.29-.29.59h-1.89v-12.8c1.23-.58,2.11-.36,2.59.89,2.65-1.71,3.45-1.77,5.79-.4-.38.61-.76,1.2-1.11,1.76Z"/>
  <path class="full-logo" d="m329.04,165.77h-1.75c-.58-2.17-.2-4.35-.27-6.48-.07-2.08-.01-4.17-.01-6.44.76-.08,1.37-.14,1.96-.2.54,2,.58,10.73.08,13.13Z"/>
  <path class="full-logo" d="m399.36,152.65c0,3.79,0,7.22,0,10.64,0,.74-.07,1.48-.11,2.19-2.05.46-2.24.42-2.26-.98-.06-3.84-.02-7.68-.02-11.67.81-.06,1.43-.11,2.4-.19Z"/>
  <path class="full-logo" d="m342.02,53.48c.18-2.32,3.02-5.38,5.14-5.53,1.08-.08,1.61.49,1.39,1.47-.53,2.28-4.01,4.45-6.52,4.06Z"/>
  <path class="full-logo" d="m375.79,144.1c.67.6,1.09.98,1.65,1.48-1.21,1.37-2.35,2.66-3.59,4.06-.52-.4-.93-.73-1.5-1.17,1.17-1.48,2.24-2.84,3.44-4.37Z"/>
  <path class="full-logo" d="m399.13,149.49h-1.99c-.06-.54-.21-1.02-.13-1.46.22-1.3,1.23-.63,2.12-.91v2.37Z"/>
  <path class="full-logo" d="m327.11,149.39v-2.03c.68-.05,1.29-.1,2.04-.16.09.74.17,1.36.27,2.19h-2.31Z"/>
</svg>
